<mxfile host="app.diagrams.net" modified="2020-12-12T02:53:55.655Z" agent="5.0 (X11; Linux x86_64) AppleWebKit/537.36 (KHTML, like Gecko) Chrome/87.0.4280.88 Safari/537.36" etag="RipEEFQt0joM2fws3YVt" version="14.0.0" type="github">
  <diagram id="iFIZnLEczgb63piqEL-i" name="Page-1">
    <mxGraphModel dx="1422" dy="730" grid="1" gridSize="11" guides="1" tooltips="1" connect="1" arrows="1" fold="1" page="1" pageScale="1" pageWidth="850" pageHeight="1100" math="0" shadow="0">
      <root>
        <mxCell id="0" />
        <mxCell id="1" parent="0" />
        <mxCell id="eHhKGv7cr_-_3nfnqAhB-1" value="Client" style="ellipse;whiteSpace=wrap;html=1;aspect=fixed;fillColor=#d5e8d4;strokeColor=#82b366;fontStyle=2" vertex="1" parent="1">
          <mxGeometry x="385" y="30" width="80" height="80" as="geometry" />
        </mxCell>
        <mxCell id="eHhKGv7cr_-_3nfnqAhB-2" value="msg.value == cost" style="rhombus;whiteSpace=wrap;html=1;fillColor=#e1d5e7;strokeColor=#9673a6;fontStyle=2" vertex="1" parent="1">
          <mxGeometry x="150" y="250" width="120" height="100" as="geometry" />
        </mxCell>
        <mxCell id="eHhKGv7cr_-_3nfnqAhB-3" value="msg.sender&lt;br&gt;&amp;nbsp;balance&lt;br&gt;&amp;gt;= romeToBurn" style="rhombus;whiteSpace=wrap;html=1;fillColor=#e1d5e7;strokeColor=#9673a6;fontStyle=2" vertex="1" parent="1">
          <mxGeometry x="580" y="250" width="120" height="100" as="geometry" />
        </mxCell>
        <mxCell id="eHhKGv7cr_-_3nfnqAhB-5" value="&lt;b&gt;&lt;font color=&quot;#cc0000&quot; style=&quot;font-size: 14px&quot;&gt;&lt;br&gt;Rome contract&lt;br&gt;interface&lt;br&gt;&lt;/font&gt;&lt;/b&gt;" style="rounded=1;whiteSpace=wrap;html=1;fillColor=#ffe6cc;strokeColor=#d79b00;fontStyle=2" vertex="1" parent="1">
          <mxGeometry x="365" y="150" width="120" height="60" as="geometry" />
        </mxCell>
        <mxCell id="eHhKGv7cr_-_3nfnqAhB-6" value="" style="endArrow=classic;html=1;entryX=0.5;entryY=0;entryDx=0;entryDy=0;" edge="1" parent="1" target="eHhKGv7cr_-_3nfnqAhB-2">
          <mxGeometry width="50" height="50" relative="1" as="geometry">
            <mxPoint x="210" y="180" as="sourcePoint" />
            <mxPoint x="210" y="180" as="targetPoint" />
          </mxGeometry>
        </mxCell>
        <mxCell id="eHhKGv7cr_-_3nfnqAhB-11" value="" style="endArrow=none;html=1;" edge="1" parent="1">
          <mxGeometry width="50" height="50" relative="1" as="geometry">
            <mxPoint x="640" y="200" as="sourcePoint" />
            <mxPoint x="640" y="180" as="targetPoint" />
          </mxGeometry>
        </mxCell>
        <mxCell id="eHhKGv7cr_-_3nfnqAhB-13" value="" style="endArrow=classic;startArrow=classic;html=1;entryX=0.5;entryY=1;entryDx=0;entryDy=0;exitX=0.5;exitY=0;exitDx=0;exitDy=0;" edge="1" parent="1" source="eHhKGv7cr_-_3nfnqAhB-5" target="eHhKGv7cr_-_3nfnqAhB-1">
          <mxGeometry width="50" height="50" relative="1" as="geometry">
            <mxPoint x="400" y="400" as="sourcePoint" />
            <mxPoint x="450" y="350" as="targetPoint" />
          </mxGeometry>
        </mxCell>
        <mxCell id="eHhKGv7cr_-_3nfnqAhB-14" value="_mint" style="whiteSpace=wrap;html=1;aspect=fixed;fillColor=#fff2cc;strokeColor=#d6b656;fontStyle=2" vertex="1" parent="1">
          <mxGeometry x="180" y="470" width="80" height="80" as="geometry" />
        </mxCell>
        <mxCell id="eHhKGv7cr_-_3nfnqAhB-15" value="_Burn" style="whiteSpace=wrap;html=1;aspect=fixed;fontStyle=2;fillColor=#fff2cc;strokeColor=#d6b656;" vertex="1" parent="1">
          <mxGeometry x="530" y="460" width="80" height="80" as="geometry" />
        </mxCell>
        <mxCell id="eHhKGv7cr_-_3nfnqAhB-16" value="&lt;font&gt;&lt;b&gt;&lt;font style=&quot;font-size: 18px&quot;&gt;!&lt;/font&gt;&lt;span style=&quot;font-size: 14px&quot;&gt;require(conditions)&lt;/span&gt;&lt;/b&gt;&lt;/font&gt;" style="shape=hexagon;perimeter=hexagonPerimeter2;whiteSpace=wrap;html=1;fixedSize=1;fillColor=#f8cecc;strokeColor=#b85450;" vertex="1" parent="1">
          <mxGeometry x="335" y="450" width="150" height="100" as="geometry" />
        </mxCell>
        <mxCell id="eHhKGv7cr_-_3nfnqAhB-18" value="" style="endArrow=classic;html=1;entryX=0;entryY=0.5;entryDx=0;entryDy=0;" edge="1" parent="1" target="eHhKGv7cr_-_3nfnqAhB-5">
          <mxGeometry width="50" height="50" relative="1" as="geometry">
            <mxPoint x="210" y="180" as="sourcePoint" />
            <mxPoint x="450" y="240" as="targetPoint" />
          </mxGeometry>
        </mxCell>
        <mxCell id="eHhKGv7cr_-_3nfnqAhB-63" value="&lt;font style=&quot;font-size: 14px&quot;&gt;&lt;b&gt;BuyRome()&lt;/b&gt;&lt;/font&gt;" style="edgeLabel;html=1;align=center;verticalAlign=middle;resizable=0;points=[];" vertex="1" connectable="0" parent="eHhKGv7cr_-_3nfnqAhB-18">
          <mxGeometry x="-0.2516" relative="1" as="geometry">
            <mxPoint as="offset" />
          </mxGeometry>
        </mxCell>
        <mxCell id="eHhKGv7cr_-_3nfnqAhB-20" value="" style="endArrow=classic;html=1;entryX=1;entryY=0.5;entryDx=0;entryDy=0;" edge="1" parent="1" target="eHhKGv7cr_-_3nfnqAhB-5">
          <mxGeometry width="50" height="50" relative="1" as="geometry">
            <mxPoint x="640" y="180" as="sourcePoint" />
            <mxPoint x="450" y="240" as="targetPoint" />
          </mxGeometry>
        </mxCell>
        <mxCell id="eHhKGv7cr_-_3nfnqAhB-22" value="&lt;font style=&quot;font-size: 14px&quot;&gt;&lt;b&gt;PrepareUnstake()&lt;/b&gt;&lt;/font&gt;" style="edgeLabel;html=1;align=center;verticalAlign=middle;resizable=0;points=[];" vertex="1" connectable="0" parent="eHhKGv7cr_-_3nfnqAhB-20">
          <mxGeometry x="-0.3161" y="1" relative="1" as="geometry">
            <mxPoint as="offset" />
          </mxGeometry>
        </mxCell>
        <mxCell id="eHhKGv7cr_-_3nfnqAhB-23" value="Client decides to unstake" style="shape=parallelogram;perimeter=parallelogramPerimeter;whiteSpace=wrap;html=1;fixedSize=1;fillColor=#f5f5f5;strokeColor=#666666;fontColor=#333333;fontStyle=2" vertex="1" parent="1">
          <mxGeometry x="560" y="85" width="160" height="65" as="geometry" />
        </mxCell>
        <mxCell id="eHhKGv7cr_-_3nfnqAhB-24" value="Client decides to buy rome" style="shape=parallelogram;perimeter=parallelogramPerimeter;whiteSpace=wrap;html=1;fixedSize=1;fillColor=#f5f5f5;strokeColor=#666666;fontColor=#333333;fontStyle=2" vertex="1" parent="1">
          <mxGeometry x="130" y="90" width="140" height="60" as="geometry" />
        </mxCell>
        <mxCell id="eHhKGv7cr_-_3nfnqAhB-29" value="" style="endArrow=classic;html=1;entryX=0.5;entryY=0;entryDx=0;entryDy=0;" edge="1" parent="1" target="eHhKGv7cr_-_3nfnqAhB-24">
          <mxGeometry width="50" height="50" relative="1" as="geometry">
            <mxPoint x="200" y="80" as="sourcePoint" />
            <mxPoint x="210" y="70" as="targetPoint" />
            <Array as="points">
              <mxPoint x="200" y="70" />
            </Array>
          </mxGeometry>
        </mxCell>
        <mxCell id="eHhKGv7cr_-_3nfnqAhB-30" value="" style="endArrow=none;html=1;entryX=0;entryY=0.5;entryDx=0;entryDy=0;" edge="1" parent="1" target="eHhKGv7cr_-_3nfnqAhB-1">
          <mxGeometry width="50" height="50" relative="1" as="geometry">
            <mxPoint x="210" y="70" as="sourcePoint" />
            <mxPoint x="450" y="240" as="targetPoint" />
          </mxGeometry>
        </mxCell>
        <mxCell id="eHhKGv7cr_-_3nfnqAhB-31" value="" style="endArrow=none;html=1;exitX=1;exitY=0.5;exitDx=0;exitDy=0;" edge="1" parent="1" source="eHhKGv7cr_-_3nfnqAhB-1">
          <mxGeometry width="50" height="50" relative="1" as="geometry">
            <mxPoint x="400" y="290" as="sourcePoint" />
            <mxPoint x="620" y="70" as="targetPoint" />
          </mxGeometry>
        </mxCell>
        <mxCell id="eHhKGv7cr_-_3nfnqAhB-32" value="" style="endArrow=classic;html=1;entryX=0.5;entryY=0;entryDx=0;entryDy=0;" edge="1" parent="1" target="eHhKGv7cr_-_3nfnqAhB-23">
          <mxGeometry width="50" height="50" relative="1" as="geometry">
            <mxPoint x="640" y="70" as="sourcePoint" />
            <mxPoint x="450" y="240" as="targetPoint" />
          </mxGeometry>
        </mxCell>
        <mxCell id="eHhKGv7cr_-_3nfnqAhB-33" value="" style="endArrow=classic;html=1;entryX=0.25;entryY=0;entryDx=0;entryDy=0;" edge="1" parent="1" target="eHhKGv7cr_-_3nfnqAhB-5">
          <mxGeometry width="50" height="50" relative="1" as="geometry">
            <mxPoint x="370" y="120" as="sourcePoint" />
            <mxPoint x="350" y="120" as="targetPoint" />
          </mxGeometry>
        </mxCell>
        <mxCell id="eHhKGv7cr_-_3nfnqAhB-34" value="" style="endArrow=none;html=1;exitX=1;exitY=0.5;exitDx=0;exitDy=0;" edge="1" parent="1" source="eHhKGv7cr_-_3nfnqAhB-24">
          <mxGeometry width="50" height="50" relative="1" as="geometry">
            <mxPoint x="400" y="290" as="sourcePoint" />
            <mxPoint x="370" y="120" as="targetPoint" />
          </mxGeometry>
        </mxCell>
        <mxCell id="eHhKGv7cr_-_3nfnqAhB-35" value="" style="endArrow=classic;html=1;entryX=0.75;entryY=0;entryDx=0;entryDy=0;" edge="1" parent="1" target="eHhKGv7cr_-_3nfnqAhB-5">
          <mxGeometry width="50" height="50" relative="1" as="geometry">
            <mxPoint x="490" y="120" as="sourcePoint" />
            <mxPoint x="450" y="240" as="targetPoint" />
          </mxGeometry>
        </mxCell>
        <mxCell id="eHhKGv7cr_-_3nfnqAhB-36" value="" style="endArrow=none;html=1;entryX=0;entryY=0.5;entryDx=0;entryDy=0;" edge="1" parent="1" target="eHhKGv7cr_-_3nfnqAhB-23">
          <mxGeometry width="50" height="50" relative="1" as="geometry">
            <mxPoint x="490" y="120" as="sourcePoint" />
            <mxPoint x="450" y="240" as="targetPoint" />
          </mxGeometry>
        </mxCell>
        <mxCell id="eHhKGv7cr_-_3nfnqAhB-37" value="" style="endArrow=none;html=1;" edge="1" parent="1">
          <mxGeometry width="50" height="50" relative="1" as="geometry">
            <mxPoint x="200" y="70" as="sourcePoint" />
            <mxPoint x="220" y="70" as="targetPoint" />
          </mxGeometry>
        </mxCell>
        <mxCell id="eHhKGv7cr_-_3nfnqAhB-38" value="" style="endArrow=none;html=1;" edge="1" parent="1">
          <mxGeometry width="50" height="50" relative="1" as="geometry">
            <mxPoint x="620" y="70" as="sourcePoint" />
            <mxPoint x="630" y="70" as="targetPoint" />
          </mxGeometry>
        </mxCell>
        <mxCell id="eHhKGv7cr_-_3nfnqAhB-39" value="" style="endArrow=none;html=1;" edge="1" parent="1">
          <mxGeometry width="50" height="50" relative="1" as="geometry">
            <mxPoint x="640" y="70" as="sourcePoint" />
            <mxPoint x="630" y="70" as="targetPoint" />
          </mxGeometry>
        </mxCell>
        <mxCell id="eHhKGv7cr_-_3nfnqAhB-40" value="" style="endArrow=none;dashed=1;html=1;strokeWidth=2;" edge="1" parent="1">
          <mxGeometry width="50" height="50" relative="1" as="geometry">
            <mxPoint x="90" y="520" as="sourcePoint" />
            <mxPoint x="90" y="170" as="targetPoint" />
          </mxGeometry>
        </mxCell>
        <mxCell id="eHhKGv7cr_-_3nfnqAhB-41" value="" style="endArrow=none;dashed=1;html=1;strokeWidth=2;" edge="1" parent="1">
          <mxGeometry width="50" height="50" relative="1" as="geometry">
            <mxPoint x="704" y="520" as="sourcePoint" />
            <mxPoint x="704" y="170" as="targetPoint" />
          </mxGeometry>
        </mxCell>
        <mxCell id="eHhKGv7cr_-_3nfnqAhB-43" value="" style="endArrow=none;dashed=1;html=1;strokeWidth=2;" edge="1" parent="1">
          <mxGeometry width="50" height="50" relative="1" as="geometry">
            <mxPoint x="704" y="580" as="sourcePoint" />
            <mxPoint x="88" y="580" as="targetPoint" />
          </mxGeometry>
        </mxCell>
        <mxCell id="eHhKGv7cr_-_3nfnqAhB-44" value="" style="endArrow=none;dashed=1;html=1;strokeWidth=2;" edge="1" parent="1">
          <mxGeometry width="50" height="50" relative="1" as="geometry">
            <mxPoint x="704" y="170" as="sourcePoint" />
            <mxPoint x="90" y="170" as="targetPoint" />
          </mxGeometry>
        </mxCell>
        <mxCell id="eHhKGv7cr_-_3nfnqAhB-45" value="" style="endArrow=none;html=1;strokeWidth=1;" edge="1" parent="1">
          <mxGeometry width="50" height="50" relative="1" as="geometry">
            <mxPoint x="200" y="80" as="sourcePoint" />
            <mxPoint x="200" y="70" as="targetPoint" />
          </mxGeometry>
        </mxCell>
        <mxCell id="eHhKGv7cr_-_3nfnqAhB-47" value="" style="endArrow=none;dashed=1;html=1;dashPattern=1 3;strokeWidth=5;exitX=0;exitY=0.5;exitDx=0;exitDy=0;fillColor=#fff2cc;strokeColor=#d6b656;" edge="1" parent="1" source="eHhKGv7cr_-_3nfnqAhB-24">
          <mxGeometry width="50" height="50" relative="1" as="geometry">
            <mxPoint x="400" y="290" as="sourcePoint" />
            <mxPoint x="40" y="120" as="targetPoint" />
          </mxGeometry>
        </mxCell>
        <mxCell id="eHhKGv7cr_-_3nfnqAhB-48" value="" style="endArrow=none;dashed=1;html=1;dashPattern=1 3;strokeWidth=5;fillColor=#fff2cc;strokeColor=#d6b656;" edge="1" parent="1">
          <mxGeometry width="50" height="50" relative="1" as="geometry">
            <mxPoint x="40" y="120" as="sourcePoint" />
            <mxPoint x="40" y="430" as="targetPoint" />
          </mxGeometry>
        </mxCell>
        <mxCell id="eHhKGv7cr_-_3nfnqAhB-49" value="" style="endArrow=none;dashed=1;html=1;dashPattern=1 3;strokeWidth=5;entryX=0;entryY=0.75;entryDx=0;entryDy=0;shadow=0;fillColor=#fff2cc;strokeColor=#d6b656;" edge="1" parent="1" target="eHhKGv7cr_-_3nfnqAhB-14">
          <mxGeometry width="50" height="50" relative="1" as="geometry">
            <mxPoint x="50" y="530" as="sourcePoint" />
            <mxPoint x="160" y="430" as="targetPoint" />
            <Array as="points">
              <mxPoint x="120" y="530" />
            </Array>
          </mxGeometry>
        </mxCell>
        <mxCell id="eHhKGv7cr_-_3nfnqAhB-50" value="" style="endArrow=none;dashed=1;html=1;dashPattern=1 3;strokeWidth=5;shadow=0;entryX=1;entryY=0.5;entryDx=0;entryDy=0;fillColor=#ffe6cc;strokeColor=#d79b00;" edge="1" parent="1" target="eHhKGv7cr_-_3nfnqAhB-23">
          <mxGeometry width="50" height="50" relative="1" as="geometry">
            <mxPoint x="780" y="118" as="sourcePoint" />
            <mxPoint x="450" y="240" as="targetPoint" />
          </mxGeometry>
        </mxCell>
        <mxCell id="eHhKGv7cr_-_3nfnqAhB-51" value="" style="endArrow=none;dashed=1;html=1;dashPattern=1 3;strokeWidth=5;shadow=0;fillColor=#fff2cc;strokeColor=#d6b656;" edge="1" parent="1">
          <mxGeometry width="50" height="50" relative="1" as="geometry">
            <mxPoint x="780" y="420" as="sourcePoint" />
            <mxPoint x="780" y="120" as="targetPoint" />
          </mxGeometry>
        </mxCell>
        <mxCell id="eHhKGv7cr_-_3nfnqAhB-52" value="" style="endArrow=none;dashed=1;html=1;dashPattern=1 3;strokeWidth=5;shadow=0;entryX=1;entryY=0.25;entryDx=0;entryDy=0;fillColor=#fff2cc;strokeColor=#d6b656;" edge="1" parent="1" target="eHhKGv7cr_-_3nfnqAhB-15">
          <mxGeometry width="50" height="50" relative="1" as="geometry">
            <mxPoint x="780" y="480" as="sourcePoint" />
            <mxPoint x="450" y="220" as="targetPoint" />
          </mxGeometry>
        </mxCell>
        <mxCell id="eHhKGv7cr_-_3nfnqAhB-53" value="&lt;font style=&quot;font-size: 14px&quot;&gt;Require&lt;/font&gt;" style="text;html=1;strokeColor=none;fillColor=none;align=center;verticalAlign=middle;whiteSpace=wrap;rounded=0;fontStyle=1" vertex="1" parent="1">
          <mxGeometry x="140" y="250" width="40" height="20" as="geometry" />
        </mxCell>
        <mxCell id="eHhKGv7cr_-_3nfnqAhB-54" value="&lt;font style=&quot;font-size: 14px&quot;&gt;Require&lt;/font&gt;" style="text;html=1;strokeColor=none;fillColor=none;align=center;verticalAlign=middle;whiteSpace=wrap;rounded=0;fontStyle=1" vertex="1" parent="1">
          <mxGeometry x="570" y="240" width="40" height="20" as="geometry" />
        </mxCell>
        <mxCell id="eHhKGv7cr_-_3nfnqAhB-55" value="" style="endArrow=classic;html=1;shadow=0;strokeWidth=1;exitX=0.5;exitY=1;exitDx=0;exitDy=0;entryX=0.363;entryY=0.025;entryDx=0;entryDy=0;entryPerimeter=0;" edge="1" parent="1" source="eHhKGv7cr_-_3nfnqAhB-2" target="eHhKGv7cr_-_3nfnqAhB-14">
          <mxGeometry width="50" height="50" relative="1" as="geometry">
            <mxPoint x="400" y="270" as="sourcePoint" />
            <mxPoint x="212" y="410" as="targetPoint" />
          </mxGeometry>
        </mxCell>
        <mxCell id="eHhKGv7cr_-_3nfnqAhB-119" value="True" style="edgeLabel;html=1;align=center;verticalAlign=middle;resizable=0;points=[];" vertex="1" connectable="0" parent="eHhKGv7cr_-_3nfnqAhB-55">
          <mxGeometry x="-0.3444" y="1" relative="1" as="geometry">
            <mxPoint as="offset" />
          </mxGeometry>
        </mxCell>
        <mxCell id="eHhKGv7cr_-_3nfnqAhB-56" value="" style="endArrow=none;html=1;shadow=0;strokeWidth=1;entryX=0.5;entryY=1;entryDx=0;entryDy=0;" edge="1" parent="1" target="eHhKGv7cr_-_3nfnqAhB-3">
          <mxGeometry width="50" height="50" relative="1" as="geometry">
            <mxPoint x="640" y="370" as="sourcePoint" />
            <mxPoint x="450" y="220" as="targetPoint" />
          </mxGeometry>
        </mxCell>
        <mxCell id="eHhKGv7cr_-_3nfnqAhB-57" value="" style="endArrow=none;html=1;shadow=0;strokeWidth=1;" edge="1" parent="1">
          <mxGeometry width="50" height="50" relative="1" as="geometry">
            <mxPoint x="640" y="370" as="sourcePoint" />
            <mxPoint x="570" y="370" as="targetPoint" />
          </mxGeometry>
        </mxCell>
        <mxCell id="eHhKGv7cr_-_3nfnqAhB-58" value="" style="endArrow=classic;html=1;shadow=0;strokeWidth=1;" edge="1" parent="1" target="eHhKGv7cr_-_3nfnqAhB-15">
          <mxGeometry width="50" height="50" relative="1" as="geometry">
            <mxPoint x="570" y="370" as="sourcePoint" />
            <mxPoint x="450" y="220" as="targetPoint" />
          </mxGeometry>
        </mxCell>
        <mxCell id="eHhKGv7cr_-_3nfnqAhB-60" value="" style="endArrow=classic;html=1;shadow=0;strokeWidth=1;entryX=0.5;entryY=0;entryDx=0;entryDy=0;" edge="1" parent="1" target="eHhKGv7cr_-_3nfnqAhB-3">
          <mxGeometry width="50" height="50" relative="1" as="geometry">
            <mxPoint x="640" y="200" as="sourcePoint" />
            <mxPoint x="450" y="220" as="targetPoint" />
          </mxGeometry>
        </mxCell>
        <mxCell id="eHhKGv7cr_-_3nfnqAhB-64" value="" style="endArrow=classic;html=1;shadow=0;strokeWidth=1;entryX=0.08;entryY=0.2;entryDx=0;entryDy=0;entryPerimeter=0;" edge="1" parent="1" target="eHhKGv7cr_-_3nfnqAhB-16">
          <mxGeometry width="50" height="50" relative="1" as="geometry">
            <mxPoint x="310" y="460" as="sourcePoint" />
            <mxPoint x="340" y="470" as="targetPoint" />
          </mxGeometry>
        </mxCell>
        <mxCell id="eHhKGv7cr_-_3nfnqAhB-65" value="" style="endArrow=classic;html=1;shadow=0;strokeWidth=1;entryX=0.953;entryY=0.18;entryDx=0;entryDy=0;entryPerimeter=0;" edge="1" parent="1" target="eHhKGv7cr_-_3nfnqAhB-16">
          <mxGeometry width="50" height="50" relative="1" as="geometry">
            <mxPoint x="540" y="380" as="sourcePoint" />
            <mxPoint x="440" y="370" as="targetPoint" />
          </mxGeometry>
        </mxCell>
        <mxCell id="eHhKGv7cr_-_3nfnqAhB-66" value="" style="endArrow=classic;html=1;shadow=0;strokeWidth=1;" edge="1" parent="1">
          <mxGeometry width="50" height="50" relative="1" as="geometry">
            <mxPoint x="360" y="260" as="sourcePoint" />
            <mxPoint x="385" y="212" as="targetPoint" />
          </mxGeometry>
        </mxCell>
        <mxCell id="eHhKGv7cr_-_3nfnqAhB-67" value="" style="endArrow=classic;html=1;shadow=0;strokeWidth=1;entryX=0.85;entryY=1.033;entryDx=0;entryDy=0;entryPerimeter=0;" edge="1" parent="1" target="eHhKGv7cr_-_3nfnqAhB-5">
          <mxGeometry width="50" height="50" relative="1" as="geometry">
            <mxPoint x="480" y="270" as="sourcePoint" />
            <mxPoint x="450" y="210" as="targetPoint" />
          </mxGeometry>
        </mxCell>
        <mxCell id="eHhKGv7cr_-_3nfnqAhB-68" value="" style="endArrow=classic;html=1;shadow=0;strokeWidth=2;entryX=0;entryY=1;entryDx=0;entryDy=0;fillColor=#fff2cc;strokeColor=#d6b656;" edge="1" parent="1" target="eHhKGv7cr_-_3nfnqAhB-5">
          <mxGeometry width="50" height="50" relative="1" as="geometry">
            <mxPoint x="310" y="230" as="sourcePoint" />
            <mxPoint x="310" y="440" as="targetPoint" />
          </mxGeometry>
        </mxCell>
        <mxCell id="eHhKGv7cr_-_3nfnqAhB-69" value="" style="endArrow=none;html=1;shadow=0;strokeWidth=3;fillColor=#fff2cc;strokeColor=#d6b656;" edge="1" parent="1">
          <mxGeometry width="50" height="50" relative="1" as="geometry">
            <mxPoint x="310" y="280" as="sourcePoint" />
            <mxPoint x="310" y="230" as="targetPoint" />
          </mxGeometry>
        </mxCell>
        <mxCell id="eHhKGv7cr_-_3nfnqAhB-70" value="" style="endArrow=none;dashed=1;html=1;dashPattern=1 3;strokeWidth=3;shadow=0;fillColor=#fff2cc;strokeColor=#d6b656;" edge="1" parent="1">
          <mxGeometry width="50" height="50" relative="1" as="geometry">
            <mxPoint x="310" y="280" as="sourcePoint" />
            <mxPoint x="310" y="320" as="targetPoint" />
          </mxGeometry>
        </mxCell>
        <mxCell id="eHhKGv7cr_-_3nfnqAhB-71" value="" style="endArrow=none;html=1;shadow=0;strokeWidth=2;fillColor=#fff2cc;strokeColor=#d6b656;" edge="1" parent="1">
          <mxGeometry width="50" height="50" relative="1" as="geometry">
            <mxPoint x="310" y="440" as="sourcePoint" />
            <mxPoint x="310" y="320" as="targetPoint" />
          </mxGeometry>
        </mxCell>
        <mxCell id="eHhKGv7cr_-_3nfnqAhB-72" value="" style="endArrow=none;html=1;shadow=0;strokeWidth=2;exitX=1;exitY=0.5;exitDx=0;exitDy=0;fillColor=#fff2cc;strokeColor=#d6b656;" edge="1" parent="1" source="eHhKGv7cr_-_3nfnqAhB-14">
          <mxGeometry width="50" height="50" relative="1" as="geometry">
            <mxPoint x="400" y="340" as="sourcePoint" />
            <mxPoint x="310" y="440" as="targetPoint" />
          </mxGeometry>
        </mxCell>
        <mxCell id="eHhKGv7cr_-_3nfnqAhB-73" value="" style="endArrow=none;html=1;shadow=0;strokeWidth=2;exitX=0.25;exitY=0;exitDx=0;exitDy=0;fillColor=#fff2cc;strokeColor=#d6b656;" edge="1" parent="1" source="eHhKGv7cr_-_3nfnqAhB-15">
          <mxGeometry width="50" height="50" relative="1" as="geometry">
            <mxPoint x="400" y="340" as="sourcePoint" />
            <mxPoint x="550" y="320" as="targetPoint" />
          </mxGeometry>
        </mxCell>
        <mxCell id="eHhKGv7cr_-_3nfnqAhB-74" value="" style="endArrow=none;dashed=1;html=1;dashPattern=1 3;strokeWidth=3;shadow=0;fillColor=#fff2cc;strokeColor=#d6b656;" edge="1" parent="1">
          <mxGeometry width="50" height="50" relative="1" as="geometry">
            <mxPoint x="550" y="320" as="sourcePoint" />
            <mxPoint x="550" y="280" as="targetPoint" />
          </mxGeometry>
        </mxCell>
        <mxCell id="eHhKGv7cr_-_3nfnqAhB-75" value="" style="endArrow=classic;html=1;shadow=0;strokeWidth=2;entryX=1;entryY=1;entryDx=0;entryDy=0;fillColor=#fff2cc;strokeColor=#d6b656;" edge="1" parent="1" target="eHhKGv7cr_-_3nfnqAhB-5">
          <mxGeometry width="50" height="50" relative="1" as="geometry">
            <mxPoint x="550" y="240" as="sourcePoint" />
            <mxPoint x="450" y="290" as="targetPoint" />
          </mxGeometry>
        </mxCell>
        <mxCell id="eHhKGv7cr_-_3nfnqAhB-76" value="" style="endArrow=none;html=1;shadow=0;strokeWidth=3;fillColor=#fff2cc;strokeColor=#d6b656;" edge="1" parent="1">
          <mxGeometry width="50" height="50" relative="1" as="geometry">
            <mxPoint x="550" y="280" as="sourcePoint" />
            <mxPoint x="550" y="240" as="targetPoint" />
          </mxGeometry>
        </mxCell>
        <mxCell id="eHhKGv7cr_-_3nfnqAhB-85" value="" style="endArrow=none;html=1;shadow=0;strokeWidth=1;exitX=0.167;exitY=-0.03;exitDx=0;exitDy=0;exitPerimeter=0;" edge="1" parent="1" source="eHhKGv7cr_-_3nfnqAhB-16">
          <mxGeometry width="50" height="50" relative="1" as="geometry">
            <mxPoint x="400" y="340" as="sourcePoint" />
            <mxPoint x="360" y="320" as="targetPoint" />
          </mxGeometry>
        </mxCell>
        <mxCell id="eHhKGv7cr_-_3nfnqAhB-91" value="" style="endArrow=none;html=1;shadow=0;strokeWidth=1;" edge="1" parent="1">
          <mxGeometry width="50" height="50" relative="1" as="geometry">
            <mxPoint x="360" y="280" as="sourcePoint" />
            <mxPoint x="360" y="260" as="targetPoint" />
          </mxGeometry>
        </mxCell>
        <mxCell id="eHhKGv7cr_-_3nfnqAhB-92" value="" style="endArrow=none;html=1;shadow=0;strokeWidth=1;exitX=0.867;exitY=0;exitDx=0;exitDy=0;exitPerimeter=0;" edge="1" parent="1" source="eHhKGv7cr_-_3nfnqAhB-16">
          <mxGeometry width="50" height="50" relative="1" as="geometry">
            <mxPoint x="400" y="340" as="sourcePoint" />
            <mxPoint x="480" y="310" as="targetPoint" />
          </mxGeometry>
        </mxCell>
        <mxCell id="eHhKGv7cr_-_3nfnqAhB-93" value="" style="endArrow=none;dashed=1;html=1;dashPattern=1 3;strokeWidth=2;shadow=0;" edge="1" parent="1">
          <mxGeometry width="50" height="50" relative="1" as="geometry">
            <mxPoint x="360" y="310" as="sourcePoint" />
            <mxPoint x="360" y="280" as="targetPoint" />
          </mxGeometry>
        </mxCell>
        <mxCell id="eHhKGv7cr_-_3nfnqAhB-94" value="" style="endArrow=none;dashed=1;html=1;dashPattern=1 3;strokeWidth=2;shadow=0;" edge="1" parent="1">
          <mxGeometry width="50" height="50" relative="1" as="geometry">
            <mxPoint x="480" y="310" as="sourcePoint" />
            <mxPoint x="480" y="270" as="targetPoint" />
          </mxGeometry>
        </mxCell>
        <mxCell id="eHhKGv7cr_-_3nfnqAhB-95" value="See note **" style="rhombus;whiteSpace=wrap;html=1;fillColor=#e1d5e7;strokeColor=#9673a6;" vertex="1" parent="1">
          <mxGeometry x="380" y="260" width="80" height="80" as="geometry" />
        </mxCell>
        <mxCell id="eHhKGv7cr_-_3nfnqAhB-96" value="" style="endArrow=none;dashed=1;html=1;dashPattern=1 3;strokeWidth=2;shadow=0;" edge="1" parent="1">
          <mxGeometry width="50" height="50" relative="1" as="geometry">
            <mxPoint x="310" y="460" as="sourcePoint" />
            <mxPoint x="270" y="410" as="targetPoint" />
          </mxGeometry>
        </mxCell>
        <mxCell id="eHhKGv7cr_-_3nfnqAhB-99" value="" style="endArrow=none;html=1;shadow=0;strokeWidth=1;exitX=1;exitY=1;exitDx=0;exitDy=0;" edge="1" parent="1" source="eHhKGv7cr_-_3nfnqAhB-2">
          <mxGeometry width="50" height="50" relative="1" as="geometry">
            <mxPoint x="400" y="340" as="sourcePoint" />
            <mxPoint x="270" y="410" as="targetPoint" />
          </mxGeometry>
        </mxCell>
        <mxCell id="eHhKGv7cr_-_3nfnqAhB-120" value="False" style="edgeLabel;html=1;align=center;verticalAlign=middle;resizable=0;points=[];" vertex="1" connectable="0" parent="eHhKGv7cr_-_3nfnqAhB-99">
          <mxGeometry x="-0.2418" y="1" relative="1" as="geometry">
            <mxPoint as="offset" />
          </mxGeometry>
        </mxCell>
        <mxCell id="eHhKGv7cr_-_3nfnqAhB-100" value="" style="endArrow=none;dashed=1;html=1;dashPattern=1 3;strokeWidth=2;shadow=0;" edge="1" parent="1">
          <mxGeometry width="50" height="50" relative="1" as="geometry">
            <mxPoint x="540" y="380" as="sourcePoint" />
            <mxPoint x="560" y="360" as="targetPoint" />
          </mxGeometry>
        </mxCell>
        <mxCell id="eHhKGv7cr_-_3nfnqAhB-101" value="" style="endArrow=none;html=1;shadow=0;strokeWidth=1;entryX=0;entryY=1;entryDx=0;entryDy=0;" edge="1" parent="1" target="eHhKGv7cr_-_3nfnqAhB-3">
          <mxGeometry width="50" height="50" relative="1" as="geometry">
            <mxPoint x="560" y="360" as="sourcePoint" />
            <mxPoint x="450" y="290" as="targetPoint" />
          </mxGeometry>
        </mxCell>
        <mxCell id="eHhKGv7cr_-_3nfnqAhB-102" value="transfer(&lt;br&gt;etherToTakeOut)" style="whiteSpace=wrap;html=1;aspect=fixed;fillColor=#fff2cc;strokeColor=#d6b656;" vertex="1" parent="1">
          <mxGeometry x="370" y="350" width="90" height="90" as="geometry" />
        </mxCell>
        <mxCell id="eHhKGv7cr_-_3nfnqAhB-103" value="" style="endArrow=none;html=1;shadow=0;strokeWidth=1;" edge="1" parent="1">
          <mxGeometry width="50" height="50" relative="1" as="geometry">
            <mxPoint x="420" y="240" as="sourcePoint" />
            <mxPoint x="420" y="214" as="targetPoint" />
          </mxGeometry>
        </mxCell>
        <mxCell id="eHhKGv7cr_-_3nfnqAhB-104" value="" style="endArrow=classic;html=1;shadow=0;strokeWidth=1;entryX=0.5;entryY=0;entryDx=0;entryDy=0;" edge="1" parent="1" target="eHhKGv7cr_-_3nfnqAhB-95">
          <mxGeometry width="50" height="50" relative="1" as="geometry">
            <mxPoint x="420" y="240" as="sourcePoint" />
            <mxPoint x="450" y="290" as="targetPoint" />
          </mxGeometry>
        </mxCell>
        <mxCell id="eHhKGv7cr_-_3nfnqAhB-105" value="" style="endArrow=none;html=1;shadow=0;strokeWidth=1;exitX=0;exitY=0.5;exitDx=0;exitDy=0;" edge="1" parent="1" source="eHhKGv7cr_-_3nfnqAhB-95">
          <mxGeometry width="50" height="50" relative="1" as="geometry">
            <mxPoint x="400" y="340" as="sourcePoint" />
            <mxPoint x="370" y="300" as="targetPoint" />
          </mxGeometry>
        </mxCell>
        <mxCell id="eHhKGv7cr_-_3nfnqAhB-106" value="" style="endArrow=none;dashed=1;html=1;dashPattern=1 3;strokeWidth=2;shadow=0;" edge="1" parent="1">
          <mxGeometry width="50" height="50" relative="1" as="geometry">
            <mxPoint x="350" y="300" as="sourcePoint" />
            <mxPoint x="370" y="300" as="targetPoint" />
          </mxGeometry>
        </mxCell>
        <mxCell id="eHhKGv7cr_-_3nfnqAhB-107" value="" style="endArrow=none;html=1;shadow=0;strokeWidth=1;" edge="1" parent="1">
          <mxGeometry width="50" height="50" relative="1" as="geometry">
            <mxPoint x="350" y="300" as="sourcePoint" />
            <mxPoint x="340" y="300" as="targetPoint" />
          </mxGeometry>
        </mxCell>
        <mxCell id="eHhKGv7cr_-_3nfnqAhB-108" value="" style="endArrow=classic;html=1;shadow=0;strokeWidth=1;entryX=0.1;entryY=0;entryDx=0;entryDy=0;entryPerimeter=0;" edge="1" parent="1" target="eHhKGv7cr_-_3nfnqAhB-16">
          <mxGeometry width="50" height="50" relative="1" as="geometry">
            <mxPoint x="330" y="430" as="sourcePoint" />
            <mxPoint x="340" y="430" as="targetPoint" />
          </mxGeometry>
        </mxCell>
        <mxCell id="eHhKGv7cr_-_3nfnqAhB-109" value="" style="endArrow=none;html=1;shadow=0;strokeWidth=1;" edge="1" parent="1">
          <mxGeometry width="50" height="50" relative="1" as="geometry">
            <mxPoint x="330" y="300" as="sourcePoint" />
            <mxPoint x="330" y="430" as="targetPoint" />
          </mxGeometry>
        </mxCell>
        <mxCell id="eHhKGv7cr_-_3nfnqAhB-110" value="" style="endArrow=none;html=1;shadow=0;strokeWidth=1;" edge="1" parent="1">
          <mxGeometry width="50" height="50" relative="1" as="geometry">
            <mxPoint x="330" y="300" as="sourcePoint" />
            <mxPoint x="350" y="300" as="targetPoint" />
          </mxGeometry>
        </mxCell>
        <mxCell id="eHhKGv7cr_-_3nfnqAhB-111" value="" style="endArrow=classic;html=1;shadow=0;strokeWidth=1;exitX=0.5;exitY=1;exitDx=0;exitDy=0;" edge="1" parent="1" source="eHhKGv7cr_-_3nfnqAhB-95">
          <mxGeometry width="50" height="50" relative="1" as="geometry">
            <mxPoint x="400" y="340" as="sourcePoint" />
            <mxPoint x="420" y="350" as="targetPoint" />
          </mxGeometry>
        </mxCell>
        <mxCell id="eHhKGv7cr_-_3nfnqAhB-112" value="Text" style="text;html=1;strokeColor=none;fillColor=none;align=center;verticalAlign=middle;whiteSpace=wrap;rounded=0;" vertex="1" parent="1">
          <mxGeometry x="400" y="300" width="40" height="20" as="geometry" />
        </mxCell>
        <mxCell id="eHhKGv7cr_-_3nfnqAhB-115" value="" style="endArrow=none;html=1;shadow=0;strokeWidth=3;fillColor=#fff2cc;strokeColor=#d6b656;" edge="1" parent="1">
          <mxGeometry width="50" height="50" relative="1" as="geometry">
            <mxPoint x="460" y="380" as="sourcePoint" />
            <mxPoint x="520" y="380" as="targetPoint" />
          </mxGeometry>
        </mxCell>
        <mxCell id="eHhKGv7cr_-_3nfnqAhB-116" value="" style="endArrow=none;html=1;shadow=0;strokeWidth=3;fillColor=#fff2cc;strokeColor=#d6b656;" edge="1" parent="1">
          <mxGeometry width="50" height="50" relative="1" as="geometry">
            <mxPoint x="520" y="380" as="sourcePoint" />
            <mxPoint x="520" y="330" as="targetPoint" />
          </mxGeometry>
        </mxCell>
        <mxCell id="eHhKGv7cr_-_3nfnqAhB-117" value="" style="endArrow=none;html=1;shadow=0;strokeWidth=3;fillColor=#fff2cc;strokeColor=#d6b656;" edge="1" parent="1">
          <mxGeometry width="50" height="50" relative="1" as="geometry">
            <mxPoint x="520" y="330" as="sourcePoint" />
            <mxPoint x="550" y="330" as="targetPoint" />
            <Array as="points">
              <mxPoint x="540" y="330" />
            </Array>
          </mxGeometry>
        </mxCell>
        <mxCell id="eHhKGv7cr_-_3nfnqAhB-121" value="" style="endArrow=none;dashed=1;html=1;dashPattern=1 3;strokeWidth=5;shadow=0;fillColor=#fff2cc;strokeColor=#d6b656;" edge="1" parent="1">
          <mxGeometry width="50" height="50" relative="1" as="geometry">
            <mxPoint x="40" y="528" as="sourcePoint" />
            <mxPoint x="40" y="430" as="targetPoint" />
          </mxGeometry>
        </mxCell>
        <mxCell id="eHhKGv7cr_-_3nfnqAhB-122" value="" style="endArrow=none;dashed=1;html=1;dashPattern=1 3;strokeWidth=5;shadow=0;fillColor=#fff2cc;strokeColor=#d6b656;" edge="1" parent="1">
          <mxGeometry width="50" height="50" relative="1" as="geometry">
            <mxPoint x="781" y="473" as="sourcePoint" />
            <mxPoint x="781" y="418" as="targetPoint" />
          </mxGeometry>
        </mxCell>
        <mxCell id="eHhKGv7cr_-_3nfnqAhB-126" value="" style="endArrow=none;dashed=1;html=1;strokeWidth=2;" edge="1" parent="1">
          <mxGeometry width="50" height="50" relative="1" as="geometry">
            <mxPoint x="88" y="583" as="sourcePoint" />
            <mxPoint x="88" y="517" as="targetPoint" />
          </mxGeometry>
        </mxCell>
        <mxCell id="eHhKGv7cr_-_3nfnqAhB-127" value="" style="endArrow=none;dashed=1;html=1;strokeWidth=2;" edge="1" parent="1">
          <mxGeometry width="50" height="50" relative="1" as="geometry">
            <mxPoint x="704" y="583" as="sourcePoint" />
            <mxPoint x="704" y="517" as="targetPoint" />
          </mxGeometry>
        </mxCell>
      </root>
    </mxGraphModel>
  </diagram>
</mxfile>
